$MeshFormat
4.1 0 8
$EndMeshFormat
$PhysicalNames
3
2 2 "Dirichlet"
2 3 "FreeSurface"
3 1 "Volume"
$EndPhysicalNames
$Entities
8 12 6 1
1 0 0 24 0 
2 0 0 0 0 
3 0 10 24 0 
4 0 10 0 0 
5 1000 0 24 0 
6 1000 0 0 0 
7 1000 10 24 0 
8 1000 10 0 0 
1 -1e-07 -1e-07 -9.99999993922529e-08 1e-07 1e-07 24.0000001 0 2 2 -1 
2 -1e-07 -1.000000002804313e-07 23.9999999 1e-07 10.0000001 24.0000001 0 2 1 -3 
3 -1e-07 9.999999900000001 -9.99999993922529e-08 1e-07 10.0000001 24.0000001 0 2 4 -3 
4 -1e-07 -1.000000002804313e-07 -1e-07 1e-07 10.0000001 1e-07 0 2 2 -4 
5 999.9999999 -1e-07 -9.99999993922529e-08 1000.0000001 1e-07 24.0000001 0 2 6 -5 
6 999.9999999 -1.000000002804313e-07 23.9999999 1000.0000001 10.0000001 24.0000001 0 2 5 -7 
7 999.9999999 9.999999900000001 -9.99999993922529e-08 1000.0000001 10.0000001 24.0000001 0 2 8 -7 
8 999.9999999 -1.000000002804313e-07 -1e-07 1000.0000001 10.0000001 1e-07 0 2 6 -8 
9 -1.000000224848918e-07 -1e-07 -1e-07 1000.0000001 1e-07 1e-07 0 2 2 -6 
10 -1.000000224848918e-07 -1e-07 23.9999999 1000.0000001 1e-07 24.0000001 0 2 1 -5 
11 -1.000000224848918e-07 9.999999900000001 -1e-07 1000.0000001 10.0000001 1e-07 0 2 4 -8 
12 -1.000000224848918e-07 9.999999900000001 23.9999999 1000.0000001 10.0000001 24.0000001 0 2 3 -7 
1 -1e-07 -1.000000002804313e-07 -9.99999993922529e-08 1e-07 10.0000001 24.0000001 1 2 4 -1 4 3 -2 
2 999.9999999 -1.000000002804313e-07 -9.99999993922529e-08 1000.0000001 10.0000001 24.0000001 1 2 4 -5 8 7 -6 
3 -1.000000224848918e-07 -1e-07 -9.99999993922529e-08 1000.0000001 1e-07 24.0000001 1 3 4 -9 1 10 -5 
4 -1.000000224848918e-07 9.999999900000001 -9.99999993922529e-08 1000.0000001 10.0000001 24.0000001 1 3 4 -11 3 12 -7 
5 -1.000000224848918e-07 -1.000000002804313e-07 -1e-07 1000.0000001 10.0000001 1e-07 1 3 4 -4 9 8 -11 
6 -1.000000224848918e-07 -1.000000002804313e-07 23.9999999 1000.0000001 10.0000001 24.0000001 1 3 4 -2 10 6 -12 
1 -1.000000224848918e-07 -1.000000002804313e-07 -9.99999993922529e-08 1000.0000001 10.0000001 24.0000001 1 1 6 -1 2 -3 4 -5 6 
$EndEntities
$Nodes
27 525 1 525
0 1 0 1
1
0 0 24
0 2 0 1
2
0 0 0
0 3 0 1
3
0 10 24
0 4 0 1
4
0 10 0
0 5 0 1
5
1000 0 24
0 6 0 1
6
1000 0 0
0 7 0 1
7
1000 10 24
0 8 0 1
8
1000 10 0
1 1 0 3
9
10
11
0 0 12
0 0 6
0 0 18
1 2 0 3
12
13
14
0 5 24
0 2.5 24
0 7.5 24
1 3 0 3
15
16
17
0 10 12
0 10 6
0 10 18
1 4 0 3
18
19
20
0 5 0
0 2.5 0
0 7.5 0
1 5 0 3
21
22
23
1000 0 12
1000 0 6
1000 0 18
1 6 0 3
24
25
26
1000 5 24
1000 2.5 24
1000 7.5 24
1 7 0 3
27
28
29
1000 10 12
1000 10 6
1000 10 18
1 8 0 3
30
31
32
1000 5 0
1000 2.5 0
1000 7.5 0
1 9 0 19
33
34
35
36
37
38
39
40
41
42
43
44
45
46
47
48
49
50
51
100 0 0
200 0 0
300.0000000000001 0 0
400 0 0
500 0 0
600.0000000000001 0 0
700.0000000000001 0 0
800 0 0
900 0 0
50 0 0
150 0 0
250 0 0
350.0000000000001 0 0
450 0 0
550 0 0
650.0000000000001 0 0
750 0 0
850 0 0
950 0 0
1 10 0 19
52
53
54
55
56
57
58
59
60
61
62
63
64
65
66
67
68
69
70
100 0 24
200 0 24
300.0000000000001 0 24
400 0 24
500 0 24
600.0000000000001 0 24
700.0000000000001 0 24
800 0 24
900 0 24
50 0 24
150 0 24
250 0 24
350.0000000000001 0 24
450 0 24
550 0 24
650.0000000000001 0 24
750 0 24
850 0 24
950 0 24
1 11 0 19
71
72
73
74
75
76
77
78
79
80
81
82
83
84
85
86
87
88
89
100 10 0
200 10 0
300.0000000000001 10 0
400 10 0
500 10 0
600.0000000000001 10 0
700.0000000000001 10 0
800 10 0
900 10 0
50 10 0
150 10 0
250 10 0
350.0000000000001 10 0
450 10 0
550 10 0
650.0000000000001 10 0
750 10 0
850 10 0
950 10 0
1 12 0 19
90
91
92
93
94
95
96
97
98
99
100
101
102
103
104
105
106
107
108
100 10 24
200 10 24
300.0000000000001 10 24
400 10 24
500 10 24
600.0000000000001 10 24
700.0000000000001 10 24
800 10 24
900 10 24
50 10 24
150 10 24
250 10 24
350.0000000000001 10 24
450 10 24
550 10 24
650.0000000000001 10 24
750 10 24
850 10 24
950 10 24
2 1 0 9
109
110
111
112
113
114
115
116
117
0 5 12
0 2.5 12
0 5 6
0 2.5 6
0 7.5 12
0 7.5 6
0 5 18
0 2.5 18
0 7.5 18
2 2 0 9
118
119
120
121
122
123
124
125
126
1000 5 12
1000 5 6
1000 2.5 12
1000 2.5 6
1000 7.5 12
1000 7.5 6
1000 5 18
1000 2.5 18
1000 7.5 18
2 3 0 57
127
128
129
130
131
132
133
134
135
136
137
138
139
140
141
142
143
144
145
146
147
148
149
150
151
152
153
154
155
156
157
158
159
160
161
162
163
164
165
166
167
168
169
170
171
172
173
174
175
176
177
178
179
180
181
182
183
100 0 12
200 0 12
300.0000000000001 0 12
400 0 12
500 0 12
600.0000000000001 0 12
700.0000000000001 0 12
800 0 12
900 0 12
100 0 6
50 0 12
50 0 6
100 0 18
50 0 18
200 0 6
150 0 12
150 0 6
200 0 18
150 0 18
300.0000000000001 0 6
250 0 12
250 0 6
300.0000000000001 0 18
250 0 18
400 0 6
350 0 12
350.0000000000001 0 6
400 0 18
350.0000000000001 0 18
500 0 6
450 0 12
450 0 6
500 0 18
450 0 18
600.0000000000001 0 6
550 0 12
550 0 6
600.0000000000001 0 18
550 0 18
700.0000000000001 0 6
650.0000000000001 0 12
650.0000000000001 0 6
700.0000000000001 0 18
650.0000000000001 0 18
800 0 6
750 0 12
750 0 6
800 0 18
750 0 18
900 0 6
850 0 12
850 0 6
900 0 18
850 0 18
950 0 12
950 0 6
950 0 18
2 4 0 57
184
185
186
187
188
189
190
191
192
193
194
195
196
197
198
199
200
201
202
203
204
205
206
207
208
209
210
211
212
213
214
215
216
217
218
219
220
221
222
223
224
225
226
227
228
229
230
231
232
233
234
235
236
237
238
239
240
100 10 12
200 10 12
300.0000000000001 10 12
400 10 12
500 10 12
600.0000000000001 10 12
700.0000000000001 10 12
800 10 12
900 10 12
50 10 12
100 10 6
50 10 6
100 10 18
50 10 18
150 10 12
200 10 6
150 10 6
200 10 18
150 10 18
250 10 12
300.0000000000001 10 6
250.0000000000001 10 6
300.0000000000001 10 18
250.0000000000001 10 18
350 10 12
400 10 6
350.0000000000001 10 6
400 10 18
350.0000000000001 10 18
450 10 12
500 10 6
450 10 6
500 10 18
450 10 18
550 10 12
600.0000000000001 10 6
550 10 6
600.0000000000001 10 18
550 10 18
650.0000000000001 10 12
700.0000000000001 10 6
650.0000000000001 10 6
700.0000000000001 10 18
650.0000000000001 10 18
750 10 12
800 10 6
750 10 6
800 10 18
750 10 18
850 10 12
900 10 6
850 10 6
900 10 18
850 10 18
950 10 12
950 10 6
950 10 18
2 5 0 57
241
242
243
244
245
246
247
248
249
250
251
252
253
254
255
256
257
258
259
260
261
262
263
264
265
266
267
268
269
270
271
272
273
274
275
276
277
278
279
280
281
282
283
284
285
286
287
288
289
290
291
292
293
294
295
296
297
100 5 0
200 5 0
300.0000000000001 5 0
400 5 0
500 5 0
600.0000000000001 5 0
700.0000000000001 5 0
800 5 0
900 5 0
50 5 0
100 2.5 0
50 2.5 0
150 5 0
200 2.5 0
150 2.5 0
250 5 0
300.0000000000001 2.5 0
250.0000000000001 2.5 0
350 5 0
400 2.5 0
350.0000000000001 2.5 0
450 5 0
500 2.5 0
450 2.5 0
550 5 0
600.0000000000001 2.5 0
550 2.5 0
650.0000000000001 5 0
700.0000000000001 2.5 0
650.0000000000001 2.5 0
750 5 0
800 2.5 0
750 2.5 0
850 5 0
900 2.5 0
850 2.5 0
950 5 0
950 2.5 0
100 7.5 0
50 7.5 0
200 7.5 0
150 7.5 0
300.0000000000001 7.5 0
250.0000000000001 7.5 0
400 7.5 0
350.0000000000001 7.5 0
500 7.5 0
450 7.5 0
600.0000000000001 7.5 0
550 7.5 0
700.0000000000001 7.5 0
650.0000000000001 7.5 0
800 7.5 0
750 7.5 0
900 7.5 0
850 7.5 0
950 7.5 0
2 6 0 57
298
299
300
301
302
303
304
305
306
307
308
309
310
311
312
313
314
315
316
317
318
319
320
321
322
323
324
325
326
327
328
329
330
331
332
333
334
335
336
337
338
339
340
341
342
343
344
345
346
347
348
349
350
351
352
353
354
100 5 24
200 5 24
300.0000000000001 5 24
400 5 24
500 5 24
600.0000000000001 5 24
700.0000000000001 5 24
800 5 24
900 5 24
100 2.5 24
50 5 24
50 2.5 24
200 2.5 24
150 5 24
150 2.5 24
300.0000000000001 2.5 24
250 5 24
250 2.5 24
400 2.5 24
350 5 24
350.0000000000001 2.5 24
500 2.5 24
450 5 24
450 2.5 24
600.0000000000001 2.5 24
550 5 24
550 2.5 24
700.0000000000001 2.5 24
650.0000000000001 5 24
650.0000000000001 2.5 24
800 2.5 24
750 5 24
750 2.5 24
900 2.5 24
850 5 24
850 2.5 24
950 5 24
950 2.5 24
100 7.5 24
50 7.5 24
200 7.5 24
150 7.5 24
300.0000000000001 7.5 24
250 7.5 24
400 7.5 24
350.0000000000001 7.5 24
500 7.5 24
450 7.5 24
600.0000000000001 7.5 24
550 7.5 24
700.0000000000001 7.5 24
650.0000000000001 7.5 24
800 7.5 24
750 7.5 24
900 7.5 24
850 7.5 24
950 7.5 24
3 1 0 171
355
356
357
358
359
360
361
362
363
364
365
366
367
368
369
370
371
372
373
374
375
376
377
378
379
380
381
382
383
384
385
386
387
388
389
390
391
392
393
394
395
396
397
398
399
400
401
402
403
404
405
406
407
408
409
410
411
412
413
414
415
416
417
418
419
420
421
422
423
424
425
426
427
428
429
430
431
432
433
434
435
436
437
438
439
440
441
442
443
444
445
446
447
448
449
450
451
452
453
454
455
456
457
458
459
460
461
462
463
464
465
466
467
468
469
470
471
472
473
474
475
476
477
478
479
480
481
482
483
484
485
486
487
488
489
490
491
492
493
494
495
496
497
498
499
500
501
502
503
504
505
506
507
508
509
510
511
512
513
514
515
516
517
518
519
520
521
522
523
524
525
100 5 12
200 5 12
299.9999999999999 5 12
400 5 12
500 5 12
599.9999999999999 5 12
700.0000000000003 5 12
800 5 12
900 5 12
50 5 12
100 2.5 12
100 5 6
50 2.5 12
50 5 6
100 2.5 6
50 2.5 6
150 5 12
200 2.5 12
200 5 5.999999999999999
150 2.5 12
150 5 6
200 2.5 6
150 2.5 6
250 5 12
300 2.5 12
300 5 6
250 2.5 12
250 5 6
300.0000000000001 2.5 6
250.0000000000001 2.5 6
350 5 12
400 2.5 12
400 5 6
350 2.5 12
350 5 6
400 2.5 6
350.0000000000001 2.5 6
450 5 12
500 2.5 12
500 5 6
450 2.5 12
450 5 6
500 2.5 6
450 2.5 6
550 5 12
600 2.5 12
600 5 6
550 2.5 12
550 5 6
600.0000000000001 2.5 6
550 2.5 6
650.0000000000001 5 12
700.0000000000002 2.5 12
700.0000000000002 5 6
650.0000000000001 2.5 12
650.0000000000001 5 6
700.0000000000002 2.5 6
650.0000000000002 2.5 6
750.0000000000002 5 12
800 2.5 12
800 5 6
750.0000000000001 2.5 12
750.0000000000001 5 6
800 2.5 6
750 2.5 6
850 5 12
900 2.5 12
900 5 6
850 2.5 12
850 5 6
900 2.5 6
850 2.5 6
950 5 12
950 2.5 12
950 5 6
950 2.5 6
100 7.5 12
50 7.5 12
100 7.5 6
50 7.5 6
200 7.5 12
150 7.5 12
200 7.5 6
150 7.5 6
300 7.5 12
250 7.5 12
300.0000000000001 7.5 6
250.0000000000001 7.5 6
400 7.5 12
350 7.5 12
400 7.5 6
350.0000000000001 7.5 6
500 7.5 12
450 7.5 12
500 7.5 6
450 7.5 6
600 7.5 12
550 7.5 12
600.0000000000001 7.5 6
550 7.5 6
700.0000000000002 7.5 12
650.0000000000001 7.5 12
700.0000000000002 7.5 6
650.0000000000002 7.5 6
800 7.5 12
750.0000000000001 7.5 12
800 7.5 6
750 7.5 6
900 7.5 12
850 7.5 12
900 7.5 6
850 7.5 6
950 7.5 12
950 7.5 6
100 5 18
50 5 18
100 2.5 18
50 2.5 18
200 5 18
150 5 18
200 2.5 18
150 2.5 18
300 5 18
250 5 18
300 2.5 18
250 2.5 18
400 5 18
350 5 18
400 2.5 18
350 2.5 18
500 5 18
450 5 18
500 2.5 18
450 2.5 18
600 5 18
550 5 18
600 2.5 18
550 2.5 18
700.0000000000002 5 18
650.0000000000001 5 18
700.0000000000001 2.5 18
650.0000000000002 2.5 18
800 5 18
750.0000000000001 5 18
800 2.5 18
750.0000000000001 2.5 18
900 5 18
850 5 18
900 2.5 18
850 2.5 18
950 5 18
950 2.5 18
100 7.5 18
50 7.5 18
200 7.5 18
150 7.5 18
300.0000000000001 7.5 18
250.0000000000001 7.5 18
400 7.5 18
350 7.5 18
500 7.5 18
450 7.5 18
600.0000000000001 7.5 18
550 7.5 18
700.0000000000002 7.5 18
650 7.5 18
800 7.5 18
750.0000000000001 7.5 18
900 7.5 18
850 7.5 18
950 7.5 18
$EndNodes
$Elements
7 128 1 128
2 1 10 4
1 2 9 109 18 10 110 111 19 112 
2 18 109 15 4 111 113 16 20 114 
3 9 1 12 109 11 13 115 110 116 
4 109 12 3 15 115 14 17 113 117 
2 2 10 4
5 6 30 118 21 31 119 120 22 121 
6 30 8 27 118 32 28 122 119 123 
7 21 118 24 5 120 124 25 23 125 
8 118 27 7 24 122 29 26 124 126 
2 3 10 20
9 2 33 127 9 42 136 137 10 138 
10 9 127 52 1 137 139 61 11 140 
11 33 34 128 127 43 141 142 136 143 
12 127 128 53 52 142 144 62 139 145 
13 34 35 129 128 44 146 147 141 148 
14 128 129 54 53 147 149 63 144 150 
15 35 36 130 129 45 151 152 146 153 
16 129 130 55 54 152 154 64 149 155 
17 36 37 131 130 46 156 157 151 158 
18 130 131 56 55 157 159 65 154 160 
19 37 38 132 131 47 161 162 156 163 
20 131 132 57 56 162 164 66 159 165 
21 38 39 133 132 48 166 167 161 168 
22 132 133 58 57 167 169 67 164 170 
23 39 40 134 133 49 171 172 166 173 
24 133 134 59 58 172 174 68 169 175 
25 40 41 135 134 50 176 177 171 178 
26 134 135 60 59 177 179 69 174 180 
27 41 6 21 135 51 22 181 176 182 
28 135 21 5 60 181 23 70 179 183 
2 4 10 20
29 4 15 184 71 16 193 194 80 195 
30 15 3 90 184 17 99 196 193 197 
31 71 184 185 72 194 198 199 81 200 
32 184 90 91 185 196 100 201 198 202 
33 72 185 186 73 199 203 204 82 205 
34 185 91 92 186 201 101 206 203 207 
35 73 186 187 74 204 208 209 83 210 
36 186 92 93 187 206 102 211 208 212 
37 74 187 188 75 209 213 214 84 215 
38 187 93 94 188 211 103 216 213 217 
39 75 188 189 76 214 218 219 85 220 
40 188 94 95 189 216 104 221 218 222 
41 76 189 190 77 219 223 224 86 225 
42 189 95 96 190 221 105 226 223 227 
43 77 190 191 78 224 228 229 87 230 
44 190 96 97 191 226 106 231 228 232 
45 78 191 192 79 229 233 234 88 235 
46 191 97 98 192 231 107 236 233 237 
47 79 192 27 8 234 238 28 89 239 
48 192 98 7 27 236 108 29 238 240 
2 5 10 20
49 2 18 241 33 19 250 251 42 252 
50 33 241 242 34 251 253 254 43 255 
51 34 242 243 35 254 256 257 44 258 
52 35 243 244 36 257 259 260 45 261 
53 36 244 245 37 260 262 263 46 264 
54 37 245 246 38 263 265 266 47 267 
55 38 246 247 39 266 268 269 48 270 
56 39 247 248 40 269 271 272 49 273 
57 40 248 249 41 272 274 275 50 276 
58 41 249 30 6 275 277 31 51 278 
59 18 4 71 241 20 80 279 250 280 
60 241 71 72 242 279 81 281 253 282 
61 242 72 73 243 281 82 283 256 284 
62 243 73 74 244 283 83 285 259 286 
63 244 74 75 245 285 84 287 262 288 
64 245 75 76 246 287 85 289 265 290 
65 246 76 77 247 289 86 291 268 292 
66 247 77 78 248 291 87 293 271 294 
67 248 78 79 249 293 88 295 274 296 
68 249 79 8 30 295 89 32 277 297 
2 6 10 20
69 1 52 298 12 61 307 308 13 309 
70 52 53 299 298 62 310 311 307 312 
71 53 54 300 299 63 313 314 310 315 
72 54 55 301 300 64 316 317 313 318 
73 55 56 302 301 65 319 320 316 321 
74 56 57 303 302 66 322 323 319 324 
75 57 58 304 303 67 325 326 322 327 
76 58 59 305 304 68 328 329 325 330 
77 59 60 306 305 69 331 332 328 333 
78 60 5 24 306 70 25 334 331 335 
79 12 298 90 3 308 336 99 14 337 
80 298 299 91 90 311 338 100 336 339 
81 299 300 92 91 314 340 101 338 341 
82 300 301 93 92 317 342 102 340 343 
83 301 302 94 93 320 344 103 342 345 
84 302 303 95 94 323 346 104 344 347 
85 303 304 96 95 326 348 105 346 349 
86 304 305 97 96 329 350 106 348 351 
87 305 306 98 97 332 352 107 350 353 
88 306 24 7 98 334 26 108 352 354 
3 1 12 40
89 109 9 2 18 355 127 33 241 110 111 364 10 137 19 42 250 365 366 136 251 112 367 368 138 252 369 370 
90 355 127 33 241 356 128 34 242 365 366 371 136 142 251 43 253 372 373 141 254 369 374 375 143 255 376 377 
91 356 128 34 242 357 129 35 243 372 373 378 141 147 254 44 256 379 380 146 257 376 381 382 148 258 383 384 
92 357 129 35 243 358 130 36 244 379 380 385 146 152 257 45 259 386 387 151 260 383 388 389 153 261 390 391 
93 358 130 36 244 359 131 37 245 386 387 392 151 157 260 46 262 393 394 156 263 390 395 396 158 264 397 398 
94 359 131 37 245 360 132 38 246 393 394 399 156 162 263 47 265 400 401 161 266 397 402 403 163 267 404 405 
95 360 132 38 246 361 133 39 247 400 401 406 161 167 266 48 268 407 408 166 269 404 409 410 168 270 411 412 
96 361 133 39 247 362 134 40 248 407 408 413 166 172 269 49 271 414 415 171 272 411 416 417 173 273 418 419 
97 362 134 40 248 363 135 41 249 414 415 420 171 177 272 50 274 421 422 176 275 418 423 424 178 276 425 426 
98 363 135 41 249 118 21 6 30 421 422 427 176 181 275 51 277 120 119 22 31 425 428 429 182 278 121 430 
99 15 109 18 4 184 355 241 71 113 16 193 111 364 20 250 80 431 194 366 279 114 432 195 368 280 433 434 
100 184 355 241 71 185 356 242 72 431 194 198 366 371 279 253 81 435 199 373 281 433 436 200 375 282 437 438 
101 185 356 242 72 186 357 243 73 435 199 203 373 378 281 256 82 439 204 380 283 437 440 205 382 284 441 442 
102 186 357 243 73 187 358 244 74 439 204 208 380 385 283 259 83 443 209 387 285 441 444 210 389 286 445 446 
103 187 358 244 74 188 359 245 75 443 209 213 387 392 285 262 84 447 214 394 287 445 448 215 396 288 449 450 
104 188 359 245 75 189 360 246 76 447 214 218 394 399 287 265 85 451 219 401 289 449 452 220 403 290 453 454 
105 189 360 246 76 190 361 247 77 451 219 223 401 406 289 268 86 455 224 408 291 453 456 225 410 292 457 458 
106 190 361 247 77 191 362 248 78 455 224 228 408 413 291 271 87 459 229 415 293 457 460 230 417 294 461 462 
107 191 362 248 78 192 363 249 79 459 229 233 415 420 293 274 88 463 234 422 295 461 464 235 424 296 465 466 
108 192 363 249 79 27 118 30 8 463 234 238 422 427 295 277 89 122 28 119 32 465 467 239 429 297 123 468 
109 12 1 9 109 298 52 127 355 13 115 308 11 61 110 137 364 307 469 139 365 116 309 470 140 367 471 472 
110 298 52 127 355 299 53 128 356 307 469 311 139 62 365 142 371 310 473 144 372 471 312 474 145 374 475 476 
111 299 53 128 356 300 54 129 357 310 473 314 144 63 372 147 378 313 477 149 379 475 315 478 150 381 479 480 
112 300 54 129 357 301 55 130 358 313 477 317 149 64 379 152 385 316 481 154 386 479 318 482 155 388 483 484 
113 301 55 130 358 302 56 131 359 316 481 320 154 65 386 157 392 319 485 159 393 483 321 486 160 395 487 488 
114 302 56 131 359 303 57 132 360 319 485 323 159 66 393 162 399 322 489 164 400 487 324 490 165 402 491 492 
115 303 57 132 360 304 58 133 361 322 489 326 164 67 400 167 406 325 493 169 407 491 327 494 170 409 495 496 
116 304 58 133 361 305 59 134 362 325 493 329 169 68 407 172 413 328 497 174 414 495 330 498 175 416 499 500 
117 305 59 134 362 306 60 135 363 328 497 332 174 69 414 177 420 331 501 179 421 499 333 502 180 423 503 504 
118 306 60 135 363 24 5 21 118 331 501 334 179 70 421 181 427 25 124 23 120 503 335 505 183 428 125 506 
119 3 12 109 15 90 298 355 184 14 17 99 115 308 113 364 193 336 196 469 431 117 337 197 470 432 507 508 
120 90 298 355 184 91 299 356 185 336 196 100 469 311 431 371 198 338 201 473 435 507 339 202 474 436 509 510 
121 91 299 356 185 92 300 357 186 338 201 101 473 314 435 378 203 340 206 477 439 509 341 207 478 440 511 512 
122 92 300 357 186 93 301 358 187 340 206 102 477 317 439 385 208 342 211 481 443 511 343 212 482 444 513 514 
123 93 301 358 187 94 302 359 188 342 211 103 481 320 443 392 213 344 216 485 447 513 345 217 486 448 515 516 
124 94 302 359 188 95 303 360 189 344 216 104 485 323 447 399 218 346 221 489 451 515 347 222 490 452 517 518 
125 95 303 360 189 96 304 361 190 346 221 105 489 326 451 406 223 348 226 493 455 517 349 227 494 456 519 520 
126 96 304 361 190 97 305 362 191 348 226 106 493 329 455 413 228 350 231 497 459 519 351 232 498 460 521 522 
127 97 305 362 191 98 306 363 192 350 231 107 497 332 459 420 233 352 236 501 463 521 353 237 502 464 523 524 
128 98 306 363 192 7 24 118 27 352 236 108 501 334 463 427 238 26 29 124 122 523 354 240 505 467 126 525 
$EndElements
