$MeshFormat
4.1 0 8
$EndMeshFormat
$Entities
0 0 0 1
3 0 0 0 3 3 2 0 0 
$EndEntities
$Nodes
1 48 1 48
3 3 0 48
1
2
3
4
5
6
7
8
9
10
11
12
13
14
15
16
17
18
19
20
21
22
23
24
25
26
27
28
29
30
31
32
33
34
35
36
37
38
39
40
41
42
43
44
45
46
47
48
0 0 0
1 0 0
2 0 0
3 0 0
0 1 0
1 1 0
2 1 0
3 1 0
0 2 0
1 2 0
2 2 0
3 2 0
0 3 0
1 3 0
2 3 0
3 3 0
0 0 1
1 0 1
2 0 1
3 0 1
0 1 1
1 1 1
2 1 1
3 1 1
0 2 1
1 2 1
2 2 1
3 2 1
0 3 1
1 3 1
2 3 1
3 3 1
0 0 2
1 0 2
2 0 2
3 0 2
0 1 2
1 1 2
2 1 2
3 1 2
0 2 2
1 2 2
2 2 2
3 2 2
0 3 2
1 3 2
2 3 2
3 3 2
$EndNodes
$Elements
1 18 1 18
3 3 5 18
1 1 2 6 5 17 18 22 21 
2 2 3 7 6 18 19 23 22 
3 3 4 8 7 19 20 24 23 
4 5 6 10 9 21 22 26 25 
5 6 7 11 10 22 23 27 26 
6 7 8 12 11 23 24 28 27 
7 9 10 14 13 25 26 30 29 
8 10 11 15 14 26 27 31 30 
9 11 12 16 15 27 28 32 31 
10 17 18 22 21 33 34 38 37 
11 18 19 23 22 34 35 39 38 
12 19 20 24 23 35 36 40 39 
13 21 22 26 25 37 38 42 41 
14 22 23 27 26 38 39 43 42 
15 23 24 28 27 39 40 44 43 
16 25 26 30 29 41 42 46 45 
17 26 27 31 30 42 43 47 46 
18 27 28 32 31 43 44 48 47 
$EndElements
