$MeshFormat
4.1 0 8
$EndMeshFormat
$Entities
0 0 0 1
3 0 0 0 3 3 2 0 0 
$EndEntities
$Nodes
1 152 1 152
3 3 0 152
1
2
3
4
5
6
7
8
9
10
11
12
13
14
15
16
17
18
19
20
21
22
23
24
25
26
27
28
29
30
31
32
33
34
35
36
37
38
39
40
41
42
43
44
45
46
47
48
49
50
51
52
53
54
55
56
57
58
59
60
61
62
63
64
65
66
67
68
69
70
71
72
73
74
75
76
77
78
79
80
81
82
83
84
85
86
87
88
89
90
91
92
93
94
95
96
97
98
99
100
101
102
103
104
105
106
107
108
109
110
111
112
113
114
115
116
117
118
119
120
121
122
123
124
125
126
127
128
129
130
131
132
133
134
135
136
137
138
139
140
141
142
143
144
145
146
147
148
149
150
151
152
0 0 0
0.5 0 0
1 0 0
1.5 0 0
2 0 0
2.5 0 0
3 0 0
0 0.5 0
1 0.5 0
2 0.5 0
3 0.5 0
0 1 0
0.5 1 0
1 1 0
1.5 1 0
2 1 0
2.5 1 0
3 1 0
0 1.5 0
1 1.5 0
2 1.5 0
3 1.5 0
0 2 0
0.5 2 0
1 2 0
1.5 2 0
2 2 0
2.5 2 0
3 2 0
0 2.5 0
1 2.5 0
2 2.5 0
3 2.5 0
0 3 0
0.5 3 0
1 3 0
1.5 3 0
2 3 0
2.5 3 0
3 3 0
0 0 0.5
1 0 0.5
2 0 0.5
3 0 0.5
0 1 0.5
1 1 0.5
2 1 0.5
3 1 0.5
0 2 0.5
1 2 0.5
2 2 0.5
3 2 0.5
0 3 0.5
1 3 0.5
2 3 0.5
3 3 0.5
0 0 1
0.5 0 1
1 0 1
1.5 0 1
2 0 1
2.5 0 1
3 0 1
0 0.5 1
1 0.5 1
2 0.5 1
3 0.5 1
0 1 1
0.5 1 1
1 1 1
1.5 1 1
2 1 1
2.5 1 1
3 1 1
0 1.5 1
1 1.5 1
2 1.5 1
3 1.5 1
0 2 1
0.5 2 1
1 2 1
1.5 2 1
2 2 1
2.5 2 1
3 2 1
0 2.5 1
1 2.5 1
2 2.5 1
3 2.5 1
0 3 1
0.5 3 1
1 3 1
1.5 3 1
2 3 1
2.5 3 1
3 3 1
0 0 1.5
1 0 1.5
2 0 1.5
3 0 1.5
0 1 1.5
1 1 1.5
2 1 1.5
3 1 1.5
0 2 1.5
1 2 1.5
2 2 1.5
3 2 1.5
0 3 1.5
1 3 1.5
2 3 1.5
3 3 1.5
0 0 2
0.5 0 2
1 0 2
1.5 0 2
2 0 2
2.5 0 2
3 0 2
0 0.5 2
1 0.5 2
2 0.5 2
3 0.5 2
0 1 2
0.5 1 2
1 1 2
1.5 1 2
2 1 2
2.5 1 2
3 1 2
0 1.5 2
1 1.5 2
2 1.5 2
3 1.5 2
0 2 2
0.5 2 2
1 2 2
1.5 2 2
2 2 2
2.5 2 2
3 2 2
0 2.5 2
1 2.5 2
2 2.5 2
3 2.5 2
0 3 2
0.5 3 2
1 3 2
1.5 3 2
2 3 2
2.5 3 2
3 3 2
$EndNodes
$Elements
1 18 1 18
3 3 5 18
1 1 3 14 12 57 59 70 68 
2 3 5 16 14 59 61 72 70 
3 5 7 18 16 61 63 74 72 
4 12 14 25 23 68 70 81 79 
5 14 16 27 25 70 72 83 81 
6 16 18 29 27 72 74 85 83 
7 23 25 36 34 79 81 92 90 
8 25 27 38 36 81 83 94 92 
9 27 29 40 38 83 85 96 94 
10 57 59 70 68 113 115 126 124 
11 59 61 72 70 115 117 128 126 
12 61 63 74 72 117 119 130 128 
13 68 70 81 79 124 126 137 135 
14 70 72 83 81 126 128 139 137 
15 72 74 85 83 128 130 141 139 
16 79 81 92 90 135 137 148 146 
17 81 83 94 92 137 139 150 148 
18 83 85 96 94 139 141 152 150 
$EndElements
