$MeshFormat
4.1 0 8
$EndMeshFormat
$Entities
0 0 1 1
2 0 0 0 0 0 0 0 0 
1 0 0 0 3 3 2 0 0 
$EndEntities
$Nodes
2 245 1 245
2 2 0 0
3 1 0 245
1
2
3
4
5
6
7
8
9
10
11
12
13
14
15
16
17
18
19
20
21
22
23
24
25
26
27
28
29
30
31
32
33
34
35
36
37
38
39
40
41
42
43
44
45
46
47
48
49
50
51
52
53
54
55
56
57
58
59
60
61
62
63
64
65
66
67
68
69
70
71
72
73
74
75
76
77
78
79
80
81
82
83
84
85
86
87
88
89
90
91
92
93
94
95
96
97
98
99
100
101
102
103
104
105
106
107
108
109
110
111
112
113
114
115
116
117
118
119
120
121
122
123
124
125
126
127
128
129
130
131
132
133
134
135
136
137
138
139
140
141
142
143
144
145
146
147
148
149
150
151
152
153
154
155
156
157
158
159
160
161
162
163
164
165
166
167
168
169
170
171
172
173
174
175
176
177
178
179
180
181
182
183
184
185
186
187
188
189
190
191
192
193
194
195
196
197
198
199
200
201
202
203
204
205
206
207
208
209
210
211
212
213
214
215
216
217
218
219
220
221
222
223
224
225
226
227
228
229
230
231
232
233
234
235
236
237
238
239
240
241
242
243
244
245
0 0 0
0.5 0 0
1 0 0
1.5 0 0
2 0 0
2.5 0 0
3 0 0
0 0.5 0
0.5 0.5 0
1 0.5 0
1.5 0.5 0
2 0.5 0
2.5 0.5 0
3 0.5 0
0 1 0
0.5 1 0
1 1 0
1.5 1 0
2 1 0
2.5 1 0
3 1 0
0 1.5 0
0.5 1.5 0
1 1.5 0
1.5 1.5 0
2 1.5 0
2.5 1.5 0
3 1.5 0
0 2 0
0.5 2 0
1 2 0
1.5 2 0
2 2 0
2.5 2 0
3 2 0
0 2.5 0
0.5 2.5 0
1 2.5 0
1.5 2.5 0
2 2.5 0
2.5 2.5 0
3 2.5 0
0 3 0
0.5 3 0
1 3 0
1.5 3 0
2 3 0
2.5 3 0
3 3 0
0 0 0.5
0.5 0 0.5
1 0 0.5
1.5 0 0.5
2 0 0.5
2.5 0 0.5
3 0 0.5
0 0.5 0.5
0.5 0.5 0.5
1 0.5 0.5
1.5 0.5 0.5
2 0.5 0.5
2.5 0.5 0.5
3 0.5 0.5
0 1 0.5
0.5 1 0.5
1 1 0.5
1.5 1 0.5
2 1 0.5
2.5 1 0.5
3 1 0.5
0 1.5 0.5
0.5 1.5 0.5
1 1.5 0.5
1.5 1.5 0.5
2 1.5 0.5
2.5 1.5 0.5
3 1.5 0.5
0 2 0.5
0.5 2 0.5
1 2 0.5
1.5 2 0.5
2 2 0.5
2.5 2 0.5
3 2 0.5
0 2.5 0.5
0.5 2.5 0.5
1 2.5 0.5
1.5 2.5 0.5
2 2.5 0.5
2.5 2.5 0.5
3 2.5 0.5
0 3 0.5
0.5 3 0.5
1 3 0.5
1.5 3 0.5
2 3 0.5
2.5 3 0.5
3 3 0.5
0 0 1
0.5 0 1
1 0 1
1.5 0 1
2 0 1
2.5 0 1
3 0 1
0 0.5 1
0.5 0.5 1
1 0.5 1
1.5 0.5 1
2 0.5 1
2.5 0.5 1
3 0.5 1
0 1 1
0.5 1 1
1 1 1
1.5 1 1
2 1 1
2.5 1 1
3 1 1
0 1.5 1
0.5 1.5 1
1 1.5 1
1.5 1.5 1
2 1.5 1
2.5 1.5 1
3 1.5 1
0 2 1
0.5 2 1
1 2 1
1.5 2 1
2 2 1
2.5 2 1
3 2 1
0 2.5 1
0.5 2.5 1
1 2.5 1
1.5 2.5 1
2 2.5 1
2.5 2.5 1
3 2.5 1
0 3 1
0.5 3 1
1 3 1
1.5 3 1
2 3 1
2.5 3 1
3 3 1
0 0 1.5
0.5 0 1.5
1 0 1.5
1.5 0 1.5
2 0 1.5
2.5 0 1.5
3 0 1.5
0 0.5 1.5
0.5 0.5 1.5
1 0.5 1.5
1.5 0.5 1.5
2 0.5 1.5
2.5 0.5 1.5
3 0.5 1.5
0 1 1.5
0.5 1 1.5
1 1 1.5
1.5 1 1.5
2 1 1.5
2.5 1 1.5
3 1 1.5
0 1.5 1.5
0.5 1.5 1.5
1 1.5 1.5
1.5 1.5 1.5
2 1.5 1.5
2.5 1.5 1.5
3 1.5 1.5
0 2 1.5
0.5 2 1.5
1 2 1.5
1.5 2 1.5
2 2 1.5
2.5 2 1.5
3 2 1.5
0 2.5 1.5
0.5 2.5 1.5
1 2.5 1.5
1.5 2.5 1.5
2 2.5 1.5
2.5 2.5 1.5
3 2.5 1.5
0 3 1.5
0.5 3 1.5
1 3 1.5
1.5 3 1.5
2 3 1.5
2.5 3 1.5
3 3 1.5
0 0 2
0.5 0 2
1 0 2
1.5 0 2
2 0 2
2.5 0 2
3 0 2
0 0.5 2
0.5 0.5 2
1 0.5 2
1.5 0.5 2
2 0.5 2
2.5 0.5 2
3 0.5 2
0 1 2
0.5 1 2
1 1 2
1.5 1 2
2 1 2
2.5 1 2
3 1 2
0 1.5 2
0.5 1.5 2
1 1.5 2
1.5 1.5 2
2 1.5 2
2.5 1.5 2
3 1.5 2
0 2 2
0.5 2 2
1 2 2
1.5 2 2
2 2 2
2.5 2 2
3 2 2
0 2.5 2
0.5 2.5 2
1 2.5 2
1.5 2.5 2
2 2.5 2
2.5 2.5 2
3 2.5 2
0 3 2
0.5 3 2
1 3 2
1.5 3 2
2 3 2
2.5 3 2
3 3 2
$EndNodes
$Elements
1 18 1 18
3 1 12 18
1 1 3 17 15 99 101 115 113 2 8 50 10 52 16 66 64 100 106 108 114 9 51 57 59 65 107 58 
2 3 5 19 17 101 103 117 115 4 10 52 12 54 18 68 66 102 108 110 116 11 53 59 61 67 109 60 
3 5 7 21 19 103 105 119 117 6 12 54 14 56 20 70 68 104 110 112 118 13 55 61 63 69 111 62 
4 15 17 31 29 113 115 129 127 16 22 64 24 66 30 80 78 114 120 122 128 23 65 71 73 79 121 72 
5 17 19 33 31 115 117 131 129 18 24 66 26 68 32 82 80 116 122 124 130 25 67 73 75 81 123 74 
6 19 21 35 33 117 119 133 131 20 26 68 28 70 34 84 82 118 124 126 132 27 69 75 77 83 125 76 
7 29 31 45 43 127 129 143 141 30 36 78 38 80 44 94 92 128 134 136 142 37 79 85 87 93 135 86 
8 31 33 47 45 129 131 145 143 32 38 80 40 82 46 96 94 130 136 138 144 39 81 87 89 95 137 88 
9 33 35 49 47 131 133 147 145 34 40 82 42 84 48 98 96 132 138 140 146 41 83 89 91 97 139 90 
10 99 101 115 113 197 199 213 211 100 106 148 108 150 114 164 162 198 204 206 212 107 149 155 157 163 205 156 
11 101 103 117 115 199 201 215 213 102 108 150 110 152 116 166 164 200 206 208 214 109 151 157 159 165 207 158 
12 103 105 119 117 201 203 217 215 104 110 152 112 154 118 168 166 202 208 210 216 111 153 159 161 167 209 160 
13 113 115 129 127 211 213 227 225 114 120 162 122 164 128 178 176 212 218 220 226 121 163 169 171 177 219 170 
14 115 117 131 129 213 215 229 227 116 122 164 124 166 130 180 178 214 220 222 228 123 165 171 173 179 221 172 
15 117 119 133 131 215 217 231 229 118 124 166 126 168 132 182 180 216 222 224 230 125 167 173 175 181 223 174 
16 127 129 143 141 225 227 241 239 128 134 176 136 178 142 192 190 226 232 234 240 135 177 183 185 191 233 184 
17 129 131 145 143 227 229 243 241 130 136 178 138 180 144 194 192 228 234 236 242 137 179 185 187 193 235 186 
18 131 133 147 145 229 231 245 243 132 138 180 140 182 146 196 194 230 236 238 244 139 181 187 189 195 237 188 
$EndElements
