$MeshFormat
4.1 0 8
$EndMeshFormat
$Entities
0 0 1 1
2 0 0 0 0 0 0 0 0 
1 0 0 0 1 1 1 0 0 
$EndEntities
$Nodes
2 27 1 27
2 2 0 0
3 1 0 27
1
2
3
4
5
6
7
8
9
10
11
12
13
14
15
16
17
18
19
20
21
22
23
24
25
26
27
0 0 0
0.5 0 0
1 0 0
0 0.5 0
0.5 0.5 0
1 0.5 0
0 1 0
0.5 1 0
1 1 0
0 0 0.5
0.5 0 0.5
1 0 0.5
0 0.5 0.5
0.5 0.5 0.5
1 0.5 0.5
0 1 0.5
0.5 1 0.5
1 1 0.5
0 0 1
0.5 0 1
1 0 1
0 0.5 1
0.5 0.5 1
1 0.5 1
0 1 1
0.5 1 1
1 1 1
$EndNodes
$Elements
1 1 1 1
3 1 12 1
1 1 3 9 7 19 21 27 25 2 4 10 6 12 8 18 16 20 22 24 26 5 11 13 15 17 23 14 
$EndElements
