$MeshFormat
4.1 0 8
$EndMeshFormat
$PhysicalNames
7
0 1 "Dirichlet"
1 1 "Dirichlet"
1 2 "Neumann"
2 1 "Dirichlet"
2 2 "Neumann"
2 3 "Boundary"
3 4 "Volume"
$EndPhysicalNames
$Entities
8 12 6 1
1 0 0 0 1 1 
2 1000 0 0 1 1 
3 1000 10 0 2 1 2 
4 0 10 0 2 1 2 
5 0 0 24 1 1 
6 1000 0 24 1 1 
7 1000 10 24 2 1 2 
8 0 10 24 2 1 2 
1 0 0 0 1000 0 0 0 2 1 -2 
2 1000 0 0 1000 10 0 1 1 2 2 -3 
3 0 10 0 1000 10 0 1 2 2 3 -4 
4 0 0 0 0 10 0 1 1 2 4 -1 
5 0 0 24 1000 0 24 0 2 5 -6 
6 1000 0 24 1000 10 24 1 1 2 6 -7 
7 0 10 24 1000 10 24 1 2 2 7 -8 
8 0 0 24 0 10 24 1 1 2 8 -5 
9 0 0 0 0 0 24 1 1 2 1 -5 
10 1000 0 0 1000 0 24 1 1 2 2 -6 
11 1000 10 0 1000 10 24 2 1 2 2 3 -7 
12 0 10 0 0 10 24 2 1 2 2 4 -8 
1 0 0 0 1000 10 0 0 4 1 2 3 4 
2 0 0 24 1000 10 24 0 4 5 6 7 8 
3 0 0 0 1000 0 24 0 4 1 10 -5 -9 
4 1000 0 0 1000 10 24 1 1 4 2 11 -6 -10 
5 0 10 0 1000 10 24 1 2 4 3 12 -7 -11 
6 0 0 0 0 10 24 1 1 4 4 9 -8 -12 
1 0 0 0 1000 10 24 1 4 6 1 2 3 4 5 6 
$EndEntities
$Nodes
26 328 1 328
0 1 0 1
1
0 0 0
0 2 0 1
2
1000 0 0
0 3 0 1
3
1000 10 0
0 4 0 1
4
0 10 0
0 5 0 1
5
0 0 24
0 6 0 1
6
1000 0 24
0 7 0 1
7
1000 10 24
0 8 0 1
8
0 10 24
1 1 0 39
9
10
11
12
13
14
15
16
17
18
19
20
21
22
23
24
25
26
27
28
29
30
31
32
33
34
35
36
37
38
39
40
41
42
43
44
45
46
47
24.99999999998777 0 0
49.99999999996744 0 0
74.99999999995612 0 0
99.99999999996535 0 0
124.9999999999718 0 0
149.9999999999183 0 0
174.9999999998565 0 0
199.9999999997947 0 0
224.9999999997328 0 0
249.999999999671 0 0
274.9999999996691 0 0
299.9999999996783 0 0
324.9999999996876 0 0
349.9999999996969 0 0
374.999999999706 0 0
399.9999999997153 0 0
424.9999999997245 0 0
449.9999999997337 0 0
474.999999999743 0 0
499.9999999997633 0 0
524.9999999998279 0 0
549.999999999837 0 0
574.999999999846 0 0
599.9999999998549 0 0
624.9999999998641 0 0
649.9999999998731 0 0
674.9999999998821 0 0
699.9999999998913 0 0
724.9999999999003 0 0
749.9999999999093 0 0
774.9999999999184 0 0
799.9999999999275 0 0
824.9999999999364 0 0
849.9999999999455 0 0
874.9999999999546 0 0
899.9999999999636 0 0
924.9999999999727 0 0
949.9999999999817 0 0
974.9999999999908 0 0
1 2 0 2
48
49
1000 3.333333333326257 0
1000 6.666666666661597 0
1 3 0 39
50
51
52
53
54
55
56
57
58
59
60
61
62
63
64
65
66
67
68
69
70
71
72
73
74
75
76
77
78
79
80
81
82
83
84
85
86
87
88
975.0000000000016 10 0
950.0000000000033 10 0
925.0000000000049 10 0
900.0000000000066 10 0
875.0000000000082 10 0
850.0000000000099 10 0
825.0000000000116 10 0
800.0000000000132 10 0
775.0000000000149 10 0
750.0000000000166 10 0
725.0000000000182 10 0
700.0000000000199 10 0
675.0000000000216 10 0
650.0000000000232 10 0
625.0000000000249 10 0
600.0000000000266 10 0
575.0000000000282 10 0
550.0000000000299 10 0
525.0000000000316 10 0
500.0000000000221 10 0
474.9999999999683 10 0
449.99999999997 10 0
424.9999999999716 10 0
399.9999999999733 10 0
374.9999999999749 10 0
349.9999999999766 10 0
324.9999999999783 10 0
299.99999999998 10 0
274.9999999999816 10 0
249.9999999999834 10 0
224.999999999985 10 0
199.9999999999866 10 0
174.9999999999883 10 0
149.9999999999899 10 0
124.9999999999917 10 0
99.99999999999329 10 0
74.999999999995 10 0
49.9999999999967 10 0
24.99999999999841 10 0
1 4 0 2
89
90
0 6.666666666666671 0
0 3.333333333333336 0
1 5 0 39
91
92
93
94
95
96
97
98
99
100
101
102
103
104
105
106
107
108
109
110
111
112
113
114
115
116
117
118
119
120
121
122
123
124
125
126
127
128
129
24.99999999998777 0 24
49.99999999996744 0 24
74.99999999995612 0 24
99.99999999996535 0 24
124.9999999999718 0 24
149.9999999999183 0 24
174.9999999998565 0 24
199.9999999997947 0 24
224.9999999997328 0 24
249.999999999671 0 24
274.9999999996691 0 24
299.9999999996783 0 24
324.9999999996876 0 24
349.9999999996969 0 24
374.999999999706 0 24
399.9999999997153 0 24
424.9999999997245 0 24
449.9999999997337 0 24
474.999999999743 0 24
499.9999999997633 0 24
524.9999999998279 0 24
549.999999999837 0 24
574.999999999846 0 24
599.9999999998549 0 24
624.9999999998641 0 24
649.9999999998731 0 24
674.9999999998821 0 24
699.9999999998913 0 24
724.9999999999003 0 24
749.9999999999093 0 24
774.9999999999184 0 24
799.9999999999275 0 24
824.9999999999364 0 24
849.9999999999455 0 24
874.9999999999546 0 24
899.9999999999636 0 24
924.9999999999727 0 24
949.9999999999817 0 24
974.9999999999908 0 24
1 6 0 2
130
131
1000 3.333333333326257 24
1000 6.666666666661597 24
1 7 0 39
132
133
134
135
136
137
138
139
140
141
142
143
144
145
146
147
148
149
150
151
152
153
154
155
156
157
158
159
160
161
162
163
164
165
166
167
168
169
170
975.0000000000016 10 24
950.0000000000033 10 24
925.0000000000049 10 24
900.0000000000066 10 24
875.0000000000082 10 24
850.0000000000099 10 24
825.0000000000116 10 24
800.0000000000132 10 24
775.0000000000149 10 24
750.0000000000166 10 24
725.0000000000182 10 24
700.0000000000199 10 24
675.0000000000216 10 24
650.0000000000232 10 24
625.0000000000249 10 24
600.0000000000266 10 24
575.0000000000282 10 24
550.0000000000299 10 24
525.0000000000316 10 24
500.0000000000221 10 24
474.9999999999683 10 24
449.99999999997 10 24
424.9999999999716 10 24
399.9999999999733 10 24
374.9999999999749 10 24
349.9999999999766 10 24
324.9999999999783 10 24
299.99999999998 10 24
274.9999999999816 10 24
249.9999999999834 10 24
224.999999999985 10 24
199.9999999999866 10 24
174.9999999999883 10 24
149.9999999999899 10 24
124.9999999999917 10 24
99.99999999999329 10 24
74.999999999995 10 24
49.9999999999967 10 24
24.99999999999841 10 24
1 8 0 2
171
172
0 6.666666666666671 24
0 3.333333333333336 24
1 9 0 0
1 10 0 0
1 11 0 0
1 12 0 0
2 1 0 78
173
174
175
176
177
178
179
180
181
182
183
184
185
186
187
188
189
190
191
192
193
194
195
196
197
198
199
200
201
202
203
204
205
206
207
208
209
210
211
212
213
214
215
216
217
218
219
220
221
222
223
224
225
226
227
228
229
230
231
232
233
234
235
236
237
238
239
240
241
242
243
244
245
246
247
248
249
250
24.99999999999132 3.333333333333159 0
24.99999999999486 6.666666666666543 0
49.99999999997719 3.333333333332981 0
49.99999999998694 6.666666666666417 0
74.99999999996906 3.333333333332805 0
74.99999999998202 6.666666666666291 0
99.99999999997468 3.333333333332628 0
99.99999999998397 6.666666666666163 0
124.9999999999784 3.333333333332451 0
124.9999999999851 6.666666666666037 0
149.9999999999422 3.333333333332273 0
149.999999999966 6.666666666665909 0
174.9999999999005 3.333333333332097 0
174.9999999999444 6.666666666665783 0
199.9999999998587 3.33333333333192 0
199.9999999999226 6.666666666665655 0
224.9999999998169 3.333333333331742 0
224.9999999999009 6.666666666665529 0
249.999999999775 3.333333333331565 0
249.9999999998792 6.666666666665403 0
274.9999999997733 3.333333333331389 0
274.9999999998774 6.666666666665276 0
299.9999999997789 3.333333333331212 0
299.9999999998795 6.666666666665149 0
324.9999999997844 3.333333333331034 0
324.9999999998814 6.666666666665023 0
349.99999999979 3.333333333330858 0
349.9999999998833 6.666666666664895 0
374.9999999997956 3.33333333333068 0
374.9999999998852 6.666666666664769 0
399.9999999998013 3.333333333330504 0
399.9999999998872 6.666666666664643 0
424.9999999998068 3.333333333330327 0
424.9999999998892 6.666666666664515 0
449.9999999998125 3.33333333333015 0
449.9999999998912 6.666666666664387 0
474.999999999818 3.333333333329974 0
474.9999999998932 6.666666666664263 0
499.9999999998496 3.333333333329796 0
499.9999999999359 6.666666666664135 0
524.9999999998959 3.33333333332962 0
524.9999999999636 6.666666666664007 0
549.9999999999013 3.333333333329443 0
549.9999999999654 6.666666666663881 0
574.9999999999067 3.333333333329265 0
574.9999999999674 6.666666666663755 0
599.9999999999121 3.333333333329088 0
599.9999999999694 6.666666666663627 0
624.9999999999179 3.333333333328912 0
624.9999999999712 6.666666666663499 0
649.9999999999234 3.333333333328734 0
649.9999999999732 6.666666666663372 0
674.9999999999287 3.333333333328557 0
674.999999999975 6.666666666663247 0
699.9999999999343 3.333333333328381 0
699.999999999977 6.666666666663119 0
724.9999999999396 3.333333333328203 0
724.9999999999791 6.666666666662993 0
749.9999999999453 3.333333333328027 0
749.9999999999807 6.666666666662866 0
774.9999999999507 3.333333333327849 0
774.9999999999825 6.666666666662738 0
799.9999999999561 3.333333333327672 0
799.9999999999848 6.666666666662612 0
824.9999999999616 3.333333333327495 0
824.9999999999866 6.666666666662484 0
849.999999999967 3.333333333327318 0
849.9999999999882 6.666666666662358 0
874.9999999999726 3.333333333327142 0
874.9999999999905 6.666666666662231 0
899.9999999999779 3.333333333326964 0
899.999999999992 6.666666666662105 0
924.9999999999835 3.333333333326787 0
924.9999999999941 6.666666666661978 0
949.9999999999887 3.333333333326611 0
949.9999999999959 6.66666666666185 0
974.9999999999944 3.333333333326434 0
974.999999999998 6.666666666661723 0
2 2 0 78
251
252
253
254
255
256
257
258
259
260
261
262
263
264
265
266
267
268
269
270
271
272
273
274
275
276
277
278
279
280
281
282
283
284
285
286
287
288
289
290
291
292
293
294
295
296
297
298
299
300
301
302
303
304
305
306
307
308
309
310
311
312
313
314
315
316
317
318
319
320
321
322
323
324
325
326
327
328
24.99999999999132 3.333333333333159 24
24.99999999999486 6.666666666666543 24
49.99999999997719 3.333333333332981 24
49.99999999998694 6.666666666666417 24
74.99999999996906 3.333333333332805 24
74.99999999998202 6.666666666666291 24
99.99999999997468 3.333333333332628 24
99.99999999998397 6.666666666666163 24
124.9999999999784 3.333333333332451 24
124.9999999999851 6.666666666666037 24
149.9999999999422 3.333333333332273 24
149.999999999966 6.666666666665909 24
174.9999999999005 3.333333333332097 24
174.9999999999444 6.666666666665783 24
199.9999999998587 3.33333333333192 24
199.9999999999226 6.666666666665655 24
224.9999999998169 3.333333333331742 24
224.9999999999009 6.666666666665529 24
249.999999999775 3.333333333331565 24
249.9999999998792 6.666666666665403 24
274.9999999997733 3.333333333331389 24
274.9999999998774 6.666666666665276 24
299.9999999997789 3.333333333331212 24
299.9999999998795 6.666666666665149 24
324.9999999997844 3.333333333331034 24
324.9999999998814 6.666666666665023 24
349.99999999979 3.333333333330858 24
349.9999999998833 6.666666666664895 24
374.9999999997956 3.33333333333068 24
374.9999999998852 6.666666666664769 24
399.9999999998013 3.333333333330504 24
399.9999999998872 6.666666666664643 24
424.9999999998068 3.333333333330327 24
424.9999999998892 6.666666666664515 24
449.9999999998125 3.33333333333015 24
449.9999999998912 6.666666666664387 24
474.999999999818 3.333333333329974 24
474.9999999998932 6.666666666664263 24
499.9999999998496 3.333333333329796 24
499.9999999999359 6.666666666664135 24
524.9999999998959 3.33333333332962 24
524.9999999999636 6.666666666664007 24
549.9999999999013 3.333333333329443 24
549.9999999999654 6.666666666663881 24
574.9999999999067 3.333333333329265 24
574.9999999999674 6.666666666663755 24
599.9999999999121 3.333333333329088 24
599.9999999999694 6.666666666663627 24
624.9999999999179 3.333333333328912 24
624.9999999999712 6.666666666663499 24
649.9999999999234 3.333333333328734 24
649.9999999999732 6.666666666663372 24
674.9999999999287 3.333333333328557 24
674.999999999975 6.666666666663247 24
699.9999999999343 3.333333333328381 24
699.999999999977 6.666666666663119 24
724.9999999999396 3.333333333328203 24
724.9999999999791 6.666666666662993 24
749.9999999999453 3.333333333328027 24
749.9999999999807 6.666666666662866 24
774.9999999999507 3.333333333327849 24
774.9999999999825 6.666666666662738 24
799.9999999999561 3.333333333327672 24
799.9999999999848 6.666666666662612 24
824.9999999999616 3.333333333327495 24
824.9999999999866 6.666666666662484 24
849.999999999967 3.333333333327318 24
849.9999999999882 6.666666666662358 24
874.9999999999726 3.333333333327142 24
874.9999999999905 6.666666666662231 24
899.9999999999779 3.333333333326964 24
899.999999999992 6.666666666662105 24
924.9999999999835 3.333333333326787 24
924.9999999999941 6.666666666661978 24
949.9999999999887 3.333333333326611 24
949.9999999999959 6.66666666666185 24
974.9999999999944 3.333333333326434 24
974.999999999998 6.666666666661723 24
2 4 0 0
2 5 0 0
2 6 0 0
3 1 0 0
$EndNodes
$Elements
22 270 1 270
0 1 15 1
1 1 
0 2 15 1
2 2 
0 3 15 1
3 3 
0 4 15 1
4 4 
0 5 15 1
5 5 
0 6 15 1
6 6 
0 7 15 1
7 7 
0 8 15 1
8 8 
1 2 1 3
9 2 48 
10 48 49 
11 49 3 
1 3 1 40
12 3 50 
13 50 51 
14 51 52 
15 52 53 
16 53 54 
17 54 55 
18 55 56 
19 56 57 
20 57 58 
21 58 59 
22 59 60 
23 60 61 
24 61 62 
25 62 63 
26 63 64 
27 64 65 
28 65 66 
29 66 67 
30 67 68 
31 68 69 
32 69 70 
33 70 71 
34 71 72 
35 72 73 
36 73 74 
37 74 75 
38 75 76 
39 76 77 
40 77 78 
41 78 79 
42 79 80 
43 80 81 
44 81 82 
45 82 83 
46 83 84 
47 84 85 
48 85 86 
49 86 87 
50 87 88 
51 88 4 
1 4 1 3
52 4 89 
53 89 90 
54 90 1 
1 6 1 3
55 6 130 
56 130 131 
57 131 7 
1 7 1 40
58 7 132 
59 132 133 
60 133 134 
61 134 135 
62 135 136 
63 136 137 
64 137 138 
65 138 139 
66 139 140 
67 140 141 
68 141 142 
69 142 143 
70 143 144 
71 144 145 
72 145 146 
73 146 147 
74 147 148 
75 148 149 
76 149 150 
77 150 151 
78 151 152 
79 152 153 
80 153 154 
81 154 155 
82 155 156 
83 156 157 
84 157 158 
85 158 159 
86 159 160 
87 160 161 
88 161 162 
89 162 163 
90 163 164 
91 164 165 
92 165 166 
93 166 167 
94 167 168 
95 168 169 
96 169 170 
97 170 8 
1 8 1 3
98 8 171 
99 171 172 
100 172 5 
1 9 1 1
101 1 5 
1 10 1 1
102 2 6 
1 11 1 1
103 3 7 
1 12 1 1
104 4 8 
2 4 3 3
105 2 48 130 6 
106 48 49 131 130 
107 49 3 7 131 
2 5 3 40
108 3 50 132 7 
109 50 51 133 132 
110 51 52 134 133 
111 52 53 135 134 
112 53 54 136 135 
113 54 55 137 136 
114 55 56 138 137 
115 56 57 139 138 
116 57 58 140 139 
117 58 59 141 140 
118 59 60 142 141 
119 60 61 143 142 
120 61 62 144 143 
121 62 63 145 144 
122 63 64 146 145 
123 64 65 147 146 
124 65 66 148 147 
125 66 67 149 148 
126 67 68 150 149 
127 68 69 151 150 
128 69 70 152 151 
129 70 71 153 152 
130 71 72 154 153 
131 72 73 155 154 
132 73 74 156 155 
133 74 75 157 156 
134 75 76 158 157 
135 76 77 159 158 
136 77 78 160 159 
137 78 79 161 160 
138 79 80 162 161 
139 80 81 163 162 
140 81 82 164 163 
141 82 83 165 164 
142 83 84 166 165 
143 84 85 167 166 
144 85 86 168 167 
145 86 87 169 168 
146 87 88 170 169 
147 88 4 8 170 
2 6 3 3
148 4 89 171 8 
149 89 90 172 171 
150 90 1 5 172 
3 1 5 120
151 1 9 173 90 5 91 251 172 
152 90 173 174 89 172 251 252 171 
153 89 174 88 4 171 252 170 8 
154 9 10 175 173 91 92 253 251 
155 173 175 176 174 251 253 254 252 
156 174 176 87 88 252 254 169 170 
157 10 11 177 175 92 93 255 253 
158 175 177 178 176 253 255 256 254 
159 176 178 86 87 254 256 168 169 
160 11 12 179 177 93 94 257 255 
161 177 179 180 178 255 257 258 256 
162 178 180 85 86 256 258 167 168 
163 12 13 181 179 94 95 259 257 
164 179 181 182 180 257 259 260 258 
165 180 182 84 85 258 260 166 167 
166 13 14 183 181 95 96 261 259 
167 181 183 184 182 259 261 262 260 
168 182 184 83 84 260 262 165 166 
169 14 15 185 183 96 97 263 261 
170 183 185 186 184 261 263 264 262 
171 184 186 82 83 262 264 164 165 
172 15 16 187 185 97 98 265 263 
173 185 187 188 186 263 265 266 264 
174 186 188 81 82 264 266 163 164 
175 16 17 189 187 98 99 267 265 
176 187 189 190 188 265 267 268 266 
177 188 190 80 81 266 268 162 163 
178 17 18 191 189 99 100 269 267 
179 189 191 192 190 267 269 270 268 
180 190 192 79 80 268 270 161 162 
181 18 19 193 191 100 101 271 269 
182 191 193 194 192 269 271 272 270 
183 192 194 78 79 270 272 160 161 
184 19 20 195 193 101 102 273 271 
185 193 195 196 194 271 273 274 272 
186 194 196 77 78 272 274 159 160 
187 20 21 197 195 102 103 275 273 
188 195 197 198 196 273 275 276 274 
189 196 198 76 77 274 276 158 159 
190 21 22 199 197 103 104 277 275 
191 197 199 200 198 275 277 278 276 
192 198 200 75 76 276 278 157 158 
193 22 23 201 199 104 105 279 277 
194 199 201 202 200 277 279 280 278 
195 200 202 74 75 278 280 156 157 
196 23 24 203 201 105 106 281 279 
197 201 203 204 202 279 281 282 280 
198 202 204 73 74 280 282 155 156 
199 24 25 205 203 106 107 283 281 
200 203 205 206 204 281 283 284 282 
201 204 206 72 73 282 284 154 155 
202 25 26 207 205 107 108 285 283 
203 205 207 208 206 283 285 286 284 
204 206 208 71 72 284 286 153 154 
205 26 27 209 207 108 109 287 285 
206 207 209 210 208 285 287 288 286 
207 208 210 70 71 286 288 152 153 
208 27 28 211 209 109 110 289 287 
209 209 211 212 210 287 289 290 288 
210 210 212 69 70 288 290 151 152 
211 28 29 213 211 110 111 291 289 
212 211 213 214 212 289 291 292 290 
213 212 214 68 69 290 292 150 151 
214 29 30 215 213 111 112 293 291 
215 213 215 216 214 291 293 294 292 
216 214 216 67 68 292 294 149 150 
217 30 31 217 215 112 113 295 293 
218 215 217 218 216 293 295 296 294 
219 216 218 66 67 294 296 148 149 
220 31 32 219 217 113 114 297 295 
221 217 219 220 218 295 297 298 296 
222 218 220 65 66 296 298 147 148 
223 32 33 221 219 114 115 299 297 
224 219 221 222 220 297 299 300 298 
225 220 222 64 65 298 300 146 147 
226 33 34 223 221 115 116 301 299 
227 221 223 224 222 299 301 302 300 
228 222 224 63 64 300 302 145 146 
229 34 35 225 223 116 117 303 301 
230 223 225 226 224 301 303 304 302 
231 224 226 62 63 302 304 144 145 
232 35 36 227 225 117 118 305 303 
233 225 227 228 226 303 305 306 304 
234 226 228 61 62 304 306 143 144 
235 36 37 229 227 118 119 307 305 
236 227 229 230 228 305 307 308 306 
237 228 230 60 61 306 308 142 143 
238 37 38 231 229 119 120 309 307 
239 229 231 232 230 307 309 310 308 
240 230 232 59 60 308 310 141 142 
241 38 39 233 231 120 121 311 309 
242 231 233 234 232 309 311 312 310 
243 232 234 58 59 310 312 140 141 
244 39 40 235 233 121 122 313 311 
245 233 235 236 234 311 313 314 312 
246 234 236 57 58 312 314 139 140 
247 40 41 237 235 122 123 315 313 
248 235 237 238 236 313 315 316 314 
249 236 238 56 57 314 316 138 139 
250 41 42 239 237 123 124 317 315 
251 237 239 240 238 315 317 318 316 
252 238 240 55 56 316 318 137 138 
253 42 43 241 239 124 125 319 317 
254 239 241 242 240 317 319 320 318 
255 240 242 54 55 318 320 136 137 
256 43 44 243 241 125 126 321 319 
257 241 243 244 242 319 321 322 320 
258 242 244 53 54 320 322 135 136 
259 44 45 245 243 126 127 323 321 
260 243 245 246 244 321 323 324 322 
261 244 246 52 53 322 324 134 135 
262 45 46 247 245 127 128 325 323 
263 245 247 248 246 323 325 326 324 
264 246 248 51 52 324 326 133 134 
265 46 47 249 247 128 129 327 325 
266 247 249 250 248 325 327 328 326 
267 248 250 50 51 326 328 132 133 
268 47 2 48 249 129 6 130 327 
269 249 48 49 250 327 130 131 328 
270 250 49 3 50 328 131 7 132 
$EndElements
